<mxfile host="Electron" agent="Mozilla/5.0 (Windows NT 10.0; Win64; x64) AppleWebKit/537.36 (KHTML, like Gecko) draw.io/26.0.15 Chrome/132.0.6834.196 Electron/34.2.0 Safari/537.36" version="26.0.15">
  <diagram name="Page-1" id="r8G4JKy3NPEU5vKbENhZ">
    <mxGraphModel dx="1050" dy="669" grid="1" gridSize="10" guides="1" tooltips="1" connect="1" arrows="1" fold="1" page="1" pageScale="1" pageWidth="850" pageHeight="1100" math="0" shadow="0">
      <root>
        <mxCell id="0" />
        <mxCell id="1" parent="0" />
        <mxCell id="OAet3KW3R_F6THEcZ7TD-1" value="ProSale" style="swimlane;childLayout=stackLayout;resizeParent=1;resizeParentMax=0;startSize=20;html=1;" vertex="1" parent="1">
          <mxGeometry x="110" y="30" width="940" height="610" as="geometry" />
        </mxCell>
        <mxCell id="OAet3KW3R_F6THEcZ7TD-2" value="User" style="swimlane;startSize=20;html=1;" vertex="1" parent="OAet3KW3R_F6THEcZ7TD-1">
          <mxGeometry y="20" width="270" height="590" as="geometry" />
        </mxCell>
        <mxCell id="OAet3KW3R_F6THEcZ7TD-5" value="" style="ellipse;html=1;shape=startState;fillColor=#000000;strokeColor=#ff0000;" vertex="1" parent="OAet3KW3R_F6THEcZ7TD-2">
          <mxGeometry x="125" y="30" width="30" height="30" as="geometry" />
        </mxCell>
        <mxCell id="OAet3KW3R_F6THEcZ7TD-6" value="" style="edgeStyle=orthogonalEdgeStyle;html=1;verticalAlign=bottom;endArrow=open;endSize=8;strokeColor=#ff0000;rounded=0;" edge="1" parent="OAet3KW3R_F6THEcZ7TD-2">
          <mxGeometry relative="1" as="geometry">
            <mxPoint x="140" y="80" as="targetPoint" />
            <mxPoint x="140" y="56" as="sourcePoint" />
          </mxGeometry>
        </mxCell>
        <mxCell id="OAet3KW3R_F6THEcZ7TD-12" value="" style="shape=line;html=1;strokeWidth=6;strokeColor=#ff0000;" vertex="1" parent="OAet3KW3R_F6THEcZ7TD-2">
          <mxGeometry x="80" y="80" width="120" height="10" as="geometry" />
        </mxCell>
        <mxCell id="OAet3KW3R_F6THEcZ7TD-13" value="" style="edgeStyle=orthogonalEdgeStyle;html=1;verticalAlign=bottom;endArrow=open;endSize=8;strokeColor=#ff0000;rounded=0;entryX=0.512;entryY=-0.105;entryDx=0;entryDy=0;entryPerimeter=0;exitX=0.494;exitY=0.517;exitDx=0;exitDy=0;exitPerimeter=0;" edge="1" source="OAet3KW3R_F6THEcZ7TD-12" parent="OAet3KW3R_F6THEcZ7TD-2" target="OAet3KW3R_F6THEcZ7TD-15">
          <mxGeometry relative="1" as="geometry">
            <mxPoint x="80" y="150" as="targetPoint" />
          </mxGeometry>
        </mxCell>
        <mxCell id="OAet3KW3R_F6THEcZ7TD-15" value="Login" style="ellipse;whiteSpace=wrap;html=1;" vertex="1" parent="OAet3KW3R_F6THEcZ7TD-2">
          <mxGeometry x="70" y="150" width="60" height="30" as="geometry" />
        </mxCell>
        <mxCell id="OAet3KW3R_F6THEcZ7TD-16" value="Sign Up and Login" style="ellipse;whiteSpace=wrap;html=1;" vertex="1" parent="OAet3KW3R_F6THEcZ7TD-2">
          <mxGeometry x="150" y="150" width="80" height="40" as="geometry" />
        </mxCell>
        <mxCell id="OAet3KW3R_F6THEcZ7TD-14" value="" style="edgeStyle=orthogonalEdgeStyle;html=1;verticalAlign=bottom;endArrow=open;endSize=8;strokeColor=#ff0000;rounded=0;entryX=0.5;entryY=0;entryDx=0;entryDy=0;exitX=0.491;exitY=0.472;exitDx=0;exitDy=0;exitPerimeter=0;" edge="1" parent="OAet3KW3R_F6THEcZ7TD-2" source="OAet3KW3R_F6THEcZ7TD-12" target="OAet3KW3R_F6THEcZ7TD-16">
          <mxGeometry relative="1" as="geometry">
            <mxPoint x="410" y="160" as="targetPoint" />
            <mxPoint x="140" y="90" as="sourcePoint" />
          </mxGeometry>
        </mxCell>
        <mxCell id="OAet3KW3R_F6THEcZ7TD-34" style="edgeStyle=orthogonalEdgeStyle;rounded=0;orthogonalLoop=1;jettySize=auto;html=1;exitX=0.5;exitY=1;exitDx=0;exitDy=0;entryX=0.5;entryY=0;entryDx=0;entryDy=0;" edge="1" parent="OAet3KW3R_F6THEcZ7TD-2" source="OAet3KW3R_F6THEcZ7TD-27" target="OAet3KW3R_F6THEcZ7TD-31">
          <mxGeometry relative="1" as="geometry" />
        </mxCell>
        <mxCell id="OAet3KW3R_F6THEcZ7TD-27" value="Watch Products" style="ellipse;whiteSpace=wrap;html=1;" vertex="1" parent="OAet3KW3R_F6THEcZ7TD-2">
          <mxGeometry x="90" y="230" width="100" height="40" as="geometry" />
        </mxCell>
        <mxCell id="OAet3KW3R_F6THEcZ7TD-28" value="" style="endArrow=classic;html=1;rounded=0;exitX=0.5;exitY=1;exitDx=0;exitDy=0;entryX=0.5;entryY=0;entryDx=0;entryDy=0;" edge="1" parent="OAet3KW3R_F6THEcZ7TD-2" source="OAet3KW3R_F6THEcZ7TD-15" target="OAet3KW3R_F6THEcZ7TD-27">
          <mxGeometry width="50" height="50" relative="1" as="geometry">
            <mxPoint x="80" y="220" as="sourcePoint" />
            <mxPoint x="130" y="170" as="targetPoint" />
          </mxGeometry>
        </mxCell>
        <mxCell id="OAet3KW3R_F6THEcZ7TD-29" value="" style="endArrow=classic;html=1;rounded=0;exitX=0.5;exitY=1;exitDx=0;exitDy=0;entryX=0.5;entryY=0;entryDx=0;entryDy=0;" edge="1" parent="OAet3KW3R_F6THEcZ7TD-2" source="OAet3KW3R_F6THEcZ7TD-16" target="OAet3KW3R_F6THEcZ7TD-27">
          <mxGeometry width="50" height="50" relative="1" as="geometry">
            <mxPoint x="110" y="190" as="sourcePoint" />
            <mxPoint x="150" y="240" as="targetPoint" />
          </mxGeometry>
        </mxCell>
        <mxCell id="OAet3KW3R_F6THEcZ7TD-31" value="Order Product" style="ellipse;whiteSpace=wrap;html=1;" vertex="1" parent="OAet3KW3R_F6THEcZ7TD-2">
          <mxGeometry x="90" y="310" width="100" height="50" as="geometry" />
        </mxCell>
        <mxCell id="OAet3KW3R_F6THEcZ7TD-3" value="Server" style="swimlane;startSize=20;html=1;" vertex="1" parent="OAet3KW3R_F6THEcZ7TD-1">
          <mxGeometry x="270" y="20" width="270" height="590" as="geometry" />
        </mxCell>
        <mxCell id="OAet3KW3R_F6THEcZ7TD-17" value="dataPerson" style="shape=datastore;whiteSpace=wrap;html=1;" vertex="1" parent="OAet3KW3R_F6THEcZ7TD-3">
          <mxGeometry x="50" y="120" width="60" height="60" as="geometry" />
        </mxCell>
        <mxCell id="OAet3KW3R_F6THEcZ7TD-21" value="dataProduct" style="shape=datastore;whiteSpace=wrap;html=1;" vertex="1" parent="OAet3KW3R_F6THEcZ7TD-3">
          <mxGeometry x="140" y="100" width="70" height="70" as="geometry" />
        </mxCell>
        <mxCell id="OAet3KW3R_F6THEcZ7TD-30" value="DataOrder" style="shape=datastore;whiteSpace=wrap;html=1;" vertex="1" parent="OAet3KW3R_F6THEcZ7TD-3">
          <mxGeometry x="100" y="200" width="60" height="60" as="geometry" />
        </mxCell>
        <mxCell id="OAet3KW3R_F6THEcZ7TD-22" value="" style="endArrow=classic;html=1;rounded=0;exitX=1;exitY=0.5;exitDx=0;exitDy=0;entryX=0;entryY=0.7;entryDx=0;entryDy=0;" edge="1" parent="OAet3KW3R_F6THEcZ7TD-1" source="OAet3KW3R_F6THEcZ7TD-16" target="OAet3KW3R_F6THEcZ7TD-17">
          <mxGeometry width="50" height="50" relative="1" as="geometry">
            <mxPoint x="300" y="310" as="sourcePoint" />
            <mxPoint x="210" y="180" as="targetPoint" />
          </mxGeometry>
        </mxCell>
        <mxCell id="OAet3KW3R_F6THEcZ7TD-23" value="saveUser" style="edgeLabel;html=1;align=center;verticalAlign=middle;resizable=0;points=[];" vertex="1" connectable="0" parent="OAet3KW3R_F6THEcZ7TD-22">
          <mxGeometry x="-0.2927" y="2" relative="1" as="geometry">
            <mxPoint as="offset" />
          </mxGeometry>
        </mxCell>
        <mxCell id="OAet3KW3R_F6THEcZ7TD-32" style="edgeStyle=orthogonalEdgeStyle;rounded=0;orthogonalLoop=1;jettySize=auto;html=1;entryX=0;entryY=0.5;entryDx=0;entryDy=0;" edge="1" parent="OAet3KW3R_F6THEcZ7TD-1" source="OAet3KW3R_F6THEcZ7TD-31" target="OAet3KW3R_F6THEcZ7TD-30">
          <mxGeometry relative="1" as="geometry">
            <Array as="points">
              <mxPoint x="300" y="355" />
              <mxPoint x="300" y="250" />
            </Array>
          </mxGeometry>
        </mxCell>
        <mxCell id="OAet3KW3R_F6THEcZ7TD-33" value="saveOrder" style="edgeLabel;html=1;align=center;verticalAlign=middle;resizable=0;points=[];" vertex="1" connectable="0" parent="OAet3KW3R_F6THEcZ7TD-32">
          <mxGeometry x="0.0484" y="1" relative="1" as="geometry">
            <mxPoint as="offset" />
          </mxGeometry>
        </mxCell>
        <mxCell id="OAet3KW3R_F6THEcZ7TD-4" value="Admin" style="swimlane;startSize=20;html=1;" vertex="1" parent="OAet3KW3R_F6THEcZ7TD-1">
          <mxGeometry x="540" y="20" width="400" height="590" as="geometry" />
        </mxCell>
        <mxCell id="OAet3KW3R_F6THEcZ7TD-10" value="" style="ellipse;html=1;shape=startState;fillColor=#000000;strokeColor=#ff0000;" vertex="1" parent="OAet3KW3R_F6THEcZ7TD-4">
          <mxGeometry x="120" y="20" width="35" height="30" as="geometry" />
        </mxCell>
        <mxCell id="OAet3KW3R_F6THEcZ7TD-11" value="" style="edgeStyle=orthogonalEdgeStyle;html=1;verticalAlign=bottom;endArrow=open;endSize=8;strokeColor=#ff0000;rounded=0;entryX=0.483;entryY=0.413;entryDx=0;entryDy=0;entryPerimeter=0;exitX=0.502;exitY=0.882;exitDx=0;exitDy=0;exitPerimeter=0;" edge="1" parent="OAet3KW3R_F6THEcZ7TD-4" source="OAet3KW3R_F6THEcZ7TD-10" target="OAet3KW3R_F6THEcZ7TD-38">
          <mxGeometry relative="1" as="geometry">
            <mxPoint x="137.5" y="74" as="targetPoint" />
            <mxPoint x="137.5" y="50" as="sourcePoint" />
          </mxGeometry>
        </mxCell>
        <mxCell id="OAet3KW3R_F6THEcZ7TD-35" value="Add, delete, edit Products" style="ellipse;whiteSpace=wrap;html=1;" vertex="1" parent="OAet3KW3R_F6THEcZ7TD-4">
          <mxGeometry x="40" y="140" width="135" height="70" as="geometry" />
        </mxCell>
        <mxCell id="OAet3KW3R_F6THEcZ7TD-38" value="" style="shape=line;html=1;strokeWidth=6;strokeColor=#ff0000;" vertex="1" parent="OAet3KW3R_F6THEcZ7TD-4">
          <mxGeometry x="80" y="74" width="120" height="10" as="geometry" />
        </mxCell>
        <mxCell id="OAet3KW3R_F6THEcZ7TD-39" value="" style="edgeStyle=orthogonalEdgeStyle;html=1;verticalAlign=bottom;endArrow=open;endSize=8;strokeColor=#ff0000;rounded=0;entryX=0.465;entryY=0.004;entryDx=0;entryDy=0;entryPerimeter=0;exitX=0.494;exitY=0.517;exitDx=0;exitDy=0;exitPerimeter=0;" edge="1" parent="OAet3KW3R_F6THEcZ7TD-4" source="OAet3KW3R_F6THEcZ7TD-38" target="OAet3KW3R_F6THEcZ7TD-35">
          <mxGeometry relative="1" as="geometry">
            <mxPoint x="101" y="141" as="targetPoint" />
          </mxGeometry>
        </mxCell>
        <mxCell id="OAet3KW3R_F6THEcZ7TD-41" value="" style="edgeStyle=orthogonalEdgeStyle;html=1;verticalAlign=bottom;endArrow=open;endSize=8;strokeColor=#ff0000;rounded=0;exitX=0.586;exitY=0.729;exitDx=0;exitDy=0;exitPerimeter=0;" edge="1" parent="OAet3KW3R_F6THEcZ7TD-4" source="OAet3KW3R_F6THEcZ7TD-38">
          <mxGeometry relative="1" as="geometry">
            <mxPoint x="281" y="185" as="targetPoint" />
            <mxPoint x="150" y="84" as="sourcePoint" />
            <Array as="points">
              <mxPoint x="150" y="84" />
              <mxPoint x="150" y="84" />
              <mxPoint x="150" y="115" />
              <mxPoint x="281" y="115" />
            </Array>
          </mxGeometry>
        </mxCell>
        <mxCell id="OAet3KW3R_F6THEcZ7TD-42" value="Handle Order" style="ellipse;whiteSpace=wrap;html=1;" vertex="1" parent="OAet3KW3R_F6THEcZ7TD-4">
          <mxGeometry x="200" y="180" width="140" height="70" as="geometry" />
        </mxCell>
        <mxCell id="OAet3KW3R_F6THEcZ7TD-37" value="" style="endArrow=block;startArrow=block;endFill=1;startFill=1;html=1;rounded=0;entryX=0;entryY=0.605;entryDx=0;entryDy=0;entryPerimeter=0;exitX=1;exitY=0.7;exitDx=0;exitDy=0;dashed=1;" edge="1" parent="OAet3KW3R_F6THEcZ7TD-1" source="OAet3KW3R_F6THEcZ7TD-21" target="OAet3KW3R_F6THEcZ7TD-35">
          <mxGeometry width="160" relative="1" as="geometry">
            <mxPoint x="470" y="170" as="sourcePoint" />
            <mxPoint x="570" y="170" as="targetPoint" />
          </mxGeometry>
        </mxCell>
        <mxCell id="OAet3KW3R_F6THEcZ7TD-44" value="" style="endArrow=classic;startArrow=classic;html=1;rounded=0;exitX=1;exitY=0.5;exitDx=0;exitDy=0;dashed=1;" edge="1" parent="OAet3KW3R_F6THEcZ7TD-1" source="OAet3KW3R_F6THEcZ7TD-30">
          <mxGeometry width="50" height="50" relative="1" as="geometry">
            <mxPoint x="480" y="300" as="sourcePoint" />
            <mxPoint x="740" y="235" as="targetPoint" />
          </mxGeometry>
        </mxCell>
      </root>
    </mxGraphModel>
  </diagram>
</mxfile>
